<svg xmlns="http://www.w3.org/2000/svg" viewBox="0 0 128 128"><title>icon</title><path d="M122.885,100.8h-9V43.335l9.84-9.839a4.011,4.011,0,0,0,0-5.675L116.408,20.5a4.012,4.012,0,0,0-5.674,0L95.961,35.272H24.089a7.008,7.008,0,0,0-7,7V100.8H8.1a1,1,0,0,0-1,1v3.933a6.952,6.952,0,0,0,6.945,6.945h102.9a6.953,6.953,0,0,0,6.947-6.945V101.8A1,1,0,0,0,122.885,100.8Z" fill="#e6e7e8"/><path d="M89.408,58.4,74.184,62.048l3.642-15.227L92.374,32.272H20.089a6,6,0,0,0-6,6V97.8h94.8V38.921Z" fill="#6dc9f7"/><path d="M89.408,58.4,74.184,62.048l3.642-15.227,5.711-5.712H23.117a2,2,0,0,0-2,2V97.8h80.745V45.949Z" fill="#d4fbff"/><polygon points="98.862 48.949 98.862 97.798 101.862 97.798 101.862 45.949 98.862 48.949" fill="#fff"/><path d="M4.1,97.8v3.933a5.945,5.945,0,0,0,5.945,5.945h102.9a5.946,5.946,0,0,0,5.947-5.945V97.8Z" fill="#0089ef"/><path d="M4.1,97.8v3.933a5.945,5.945,0,0,0,5.945,5.945h102.9a5.946,5.946,0,0,0,5.947-5.945V97.8Z" fill="#0089ef"/><path d="M42.439,97.8v1.991a3.009,3.009,0,0,0,3.009,3.009H77.531a3.009,3.009,0,0,0,3.009-3.009V97.8Z" fill="#6dc9f7"/><path d="M60.31,56.048H53.5a1,1,0,0,1,0-2H60.31a1,1,0,0,1,0,2Z" fill="#fa759e"/><path d="M47.5,56.048H32.669a1,1,0,1,1,0-2H47.5a1,1,0,1,1,0,2Z" fill="#fa759e"/><path d="M89.408,58.4,74.184,62.048l3.642-15.227L107.44,17.206a3.014,3.014,0,0,1,4.261,0l7.322,7.322a3.013,3.013,0,0,1,0,4.26Z" fill="#ffd7e5"/><path d="M89.408,58.4,77.826,46.821,107.44,17.206a3.014,3.014,0,0,1,4.261,0l7.322,7.322a3.013,3.013,0,0,1,0,4.26Z" fill="#fa759e"/><path d="M116.2,31.607l2.819-2.819a3.013,3.013,0,0,0,0-4.26L111.7,17.206a3.014,3.014,0,0,0-4.261,0l-2.818,2.819Z" fill="#0089ef"/><path d="M21.117,87.284a1,1,0,0,0,1-1V76.617a1,1,0,0,0-2,0v9.667A1,1,0,0,0,21.117,87.284Z" fill="#3a2c60"/><path d="M118.885,96.8h-9V39.336l9.84-9.84a4.014,4.014,0,0,0,0-5.675L112.407,16.5a4.011,4.011,0,0,0-5.673,0L91.96,31.272H20.089a7.008,7.008,0,0,0-7,7V96.8h-9a1,1,0,0,0-1,1v3.933a6.953,6.953,0,0,0,6.946,6.945h102.9a6.953,6.953,0,0,0,6.946-6.945V97.8A1,1,0,0,0,118.885,96.8Zm-11,0h-5.028V46.363l5.028-5.027ZM78.224,60.053l-2.045-2.046,2.2-9.215,9.056,9.055Zm11.184-3.064L79.24,46.821l25.382-25.382L114.79,31.607Zm18.74-39.076a2.06,2.06,0,0,1,2.845,0l7.323,7.322a2.015,2.015,0,0,1,0,2.847L116.2,30.193,106.036,20.025ZM15.089,38.272a5.006,5.006,0,0,1,5-5H89.96l-6.837,6.837H23.117a3,3,0,0,0-3,3V72.95a1,1,0,0,0,2,0V43.109a1,1,0,0,1,1-1H81.123l-4.005,4c-.113.113-2.961,11.807-3.721,14.934H68a1,1,0,0,0,0,2h6.184a1.02,1.02,0,0,0,.232-.027l15.225-3.645a1,1,0,0,0,.474-.266l10.747-10.747V96.8H22.117V89.617a1,1,0,0,0-2,0V96.8H15.089Zm102.8,63.459a4.951,4.951,0,0,1-4.946,4.945H10.04a4.951,4.951,0,0,1-4.946-4.945V98.8H117.885Z" fill="#3a2c60"/><path d="M37.669,63.048H62.835a1,1,0,1,0,0-2H37.669a1,1,0,0,0,0,2Z" fill="#3a2c60"/><path d="M55.089,69.048a1,1,0,0,0,1,1H90.311a1,1,0,0,0,0-2H56.089A1,1,0,0,0,55.089,69.048Z" fill="#3a2c60"/><path d="M37.669,70.048H50a1,1,0,1,0,0-2H37.669a1,1,0,0,0,0,2Z" fill="#3a2c60"/><path d="M37.669,77.048H90.311a1,1,0,0,0,0-2H37.669a1,1,0,0,0,0,2Z" fill="#3a2c60"/><path d="M60.31,84.048H50a1,1,0,0,1,0-2H60.31a1,1,0,0,1,0,2Z" fill="#fa759e"/><path d="M46,84.048H32.669a1,1,0,1,1,0-2H46a1,1,0,1,1,0,2Z" fill="#fa759e"/></svg>