<svg xmlns="http://www.w3.org/2000/svg" viewBox="0 0 128 128"><title>icon</title><path d="M119.37,23.414H61.328a5.324,5.324,0,0,1-4.377-2.292L54.37,17.4a7.46,7.46,0,0,0-6.133-3.213H12.565a5,5,0,0,0-5,5v93.829a5,5,0,0,0,5,5H119.37a5,5,0,0,0,5-5v-84.6A5,5,0,0,0,119.37,23.414Z" fill="#e6e7e8"/><path d="M4.63,33H119.3a0,0,0,0,1,0,0v75.687a4,4,0,0,1-4,4H8.63a4,4,0,0,1-4-4V33A0,0,0,0,1,4.63,33Z" fill="#d4fbff"/><path d="M49.188,91.4a2.849,2.849,0,0,1,0,3.928A2.911,2.911,0,0,1,47.224,96H43.015a6.734,6.734,0,0,1-5.022-1.8,6.816,6.816,0,0,1-1.768-4.994V78.324a5.342,5.342,0,0,0-.785-3.254,3.786,3.786,0,0,0-2.806-1.178,2.6,2.6,0,0,1-2.693-2.75,2.636,2.636,0,0,1,.7-1.908,2.811,2.811,0,0,1,1.992-.785A3.794,3.794,0,0,0,35.44,67.27a5.341,5.341,0,0,0,.785-3.255V53.129a6.816,6.816,0,0,1,1.768-4.994,6.73,6.73,0,0,1,5.022-1.795h4.209a2.911,2.911,0,0,1,1.964.673,2.849,2.849,0,0,1,0,3.928,2.911,2.911,0,0,1-1.964.673h-1.8a2.406,2.406,0,0,0-1.768.589,2.574,2.574,0,0,0-.589,1.88V64.857a6.737,6.737,0,0,1-1.319,4.237,5.349,5.349,0,0,1-3.114,2.1,5.393,5.393,0,0,1,3.114,2.076,6.617,6.617,0,0,1,1.319,4.209V88.256a2.573,2.573,0,0,0,.589,1.88,2.4,2.4,0,0,0,1.768.589h1.8A2.911,2.911,0,0,1,49.188,91.4Z" fill="#fa759e"/><path d="M58.993,65.054a4.13,4.13,0,0,1-1.178-3,4.153,4.153,0,1,1,8.305,0,4.13,4.13,0,0,1-1.178,3,4.271,4.271,0,0,1-5.949,0Zm5.949,14.168a6.226,6.226,0,0,1,1.178,4.1,12.859,12.859,0,0,1-3.7,9.2,2.2,2.2,0,0,1-1.571.73,2.1,2.1,0,0,1-1.459-.562,1.755,1.755,0,0,1-.617-1.346,1.907,1.907,0,0,1,.561-1.291,8.609,8.609,0,0,0,2.188-4.04,4.123,4.123,0,0,1-2.665-1.263,3.794,3.794,0,0,1-1.038-2.721,4.181,4.181,0,0,1,1.15-3,4.081,4.081,0,0,1,5.977.2Z" fill="#fa759e"/><path d="M93.292,69.234a2.638,2.638,0,0,1,.7,1.908,2.806,2.806,0,0,1-.674,1.936,2.725,2.725,0,0,1-2.021.814,3.788,3.788,0,0,0-2.806,1.178,5.342,5.342,0,0,0-.784,3.254V89.211a6.816,6.816,0,0,1-1.768,4.994A6.735,6.735,0,0,1,80.92,96H76.711a2.911,2.911,0,0,1-1.964-.673,2.847,2.847,0,0,1,0-3.928,2.911,2.911,0,0,1,1.964-.674h1.8a2.4,2.4,0,0,0,1.767-.589,2.568,2.568,0,0,0,.589-1.88V77.483a6.606,6.606,0,0,1,1.32-4.209A5.385,5.385,0,0,1,85.3,71.2a5.341,5.341,0,0,1-3.113-2.1,6.726,6.726,0,0,1-1.32-4.237V54.083a2.57,2.57,0,0,0-.589-1.88,2.4,2.4,0,0,0-1.767-.589h-1.8a2.911,2.911,0,0,1-1.964-.673,2.847,2.847,0,0,1,0-3.928,2.911,2.911,0,0,1,1.964-.673H80.92a6.731,6.731,0,0,1,5.022,1.795,6.816,6.816,0,0,1,1.768,4.994V64.015a5.342,5.342,0,0,0,.784,3.255A3.8,3.8,0,0,0,91.3,68.449,2.813,2.813,0,0,1,93.292,69.234Z" fill="#fa759e"/><path d="M115.305,109.687H8.63a4,4,0,0,1-4-4v3a4,4,0,0,0,4,4H115.305a4,4,0,0,0,4-4v-3A4,4,0,0,1,115.305,109.687Z" fill="#fff"/><path d="M52.073,17.466,49.5,13.741a6.393,6.393,0,0,0-5.255-2.753H8.63a4,4,0,0,0-4,4V33H119.305V24.219a4,4,0,0,0-4-4H57.328A6.393,6.393,0,0,1,52.073,17.466Z" fill="#6dc9f7"/><path d="M42.544,69.7a7.73,7.73,0,0,0,1.527-4.847V54.083a1.758,1.758,0,0,1,.3-1.172,1.586,1.586,0,0,1,1.062-.3h1.8a3.9,3.9,0,0,0,2.614-.914,3.835,3.835,0,0,0,0-5.447,3.9,3.9,0,0,0-2.614-.914H43.016a7.718,7.718,0,0,0-5.736,2.095,7.8,7.8,0,0,0-2.055,5.7V64.015a4.344,4.344,0,0,1-.574,2.641,3.057,3.057,0,0,1-2.06.794,3.783,3.783,0,0,0-2.67,1.091,3.615,3.615,0,0,0-.981,2.6,3.587,3.587,0,0,0,3.612,3.746,3.1,3.1,0,0,1,2.1.8,4.337,4.337,0,0,1,.575,2.641V89.211a7.8,7.8,0,0,0,2.056,5.7A7.719,7.719,0,0,0,43.016,97h4.208a3.9,3.9,0,0,0,2.614-.914,3.835,3.835,0,0,0,0-5.447h0a3.9,3.9,0,0,0-2.614-.913h-1.8a1.582,1.582,0,0,1-1.061-.3,1.75,1.75,0,0,1-.3-1.173V77.483a7.619,7.619,0,0,0-1.531-4.825,7.348,7.348,0,0,0-1.508-1.464A7.337,7.337,0,0,0,42.544,69.7Zm-4.119,2.471a4.385,4.385,0,0,1,2.54,1.716,5.6,5.6,0,0,1,1.106,3.592V88.256a3.521,3.521,0,0,0,.882,2.587,3.358,3.358,0,0,0,2.475.883h1.8a1.932,1.932,0,0,1,1.313.432,1.882,1.882,0,0,1,0,2.409A1.933,1.933,0,0,1,47.224,95H43.016a5.737,5.737,0,0,1-4.31-1.5,5.811,5.811,0,0,1-1.481-4.292V78.324a6.19,6.19,0,0,0-1-3.869,4.761,4.761,0,0,0-3.551-1.562,1.789,1.789,0,0,1-1.3-.5,1.763,1.763,0,0,1-.435-1.256,1.646,1.646,0,0,1,.423-1.215,1.9,1.9,0,0,1,1.355-.482,4.733,4.733,0,0,0,3.511-1.561,6.2,6.2,0,0,0,1-3.869V53.129a5.813,5.813,0,0,1,1.48-4.292,5.738,5.738,0,0,1,4.311-1.5h4.208a1.933,1.933,0,0,1,1.313.433,1.41,1.41,0,0,1,.436,1.2,1.425,1.425,0,0,1-.436,1.205,1.932,1.932,0,0,1-1.313.432h-1.8a3.363,3.363,0,0,0-2.475.883,3.521,3.521,0,0,0-.882,2.586V64.857a5.712,5.712,0,0,1-1.111,3.626,4.346,4.346,0,0,1-2.535,1.738,1,1,0,0,0,0,1.954Z" fill="#3a2c60"/><path d="M65.649,58.371a5.153,5.153,0,0,0-8.834,3.68,5.108,5.108,0,0,0,1.463,3.7,5.267,5.267,0,0,0,7.379,0,5.112,5.112,0,0,0,1.463-3.7A5.012,5.012,0,0,0,65.649,58.371Zm-1.423,5.984a3.271,3.271,0,0,1-4.517,0h0a3.134,3.134,0,0,1-.894-2.3,3.153,3.153,0,1,1,6.305,0A3.133,3.133,0,0,1,64.226,64.355Z" fill="#3a2c60"/><path d="M57.769,91.343a2.76,2.76,0,0,0,.945,2.086,3.078,3.078,0,0,0,2.131.822,3.19,3.19,0,0,0,2.294-1.039,13.886,13.886,0,0,0,3.981-9.893,7.2,7.2,0,0,0-1.413-4.74h0a5.079,5.079,0,0,0-7.465-.243,5.166,5.166,0,0,0-1.427,3.691,4.783,4.783,0,0,0,1.313,3.411,4.963,4.963,0,0,0,2.122,1.33,7.924,7.924,0,0,1-1.659,2.611A2.879,2.879,0,0,0,57.769,91.343Zm2.291-.607a9.626,9.626,0,0,0,2.434-4.5,1,1,0,0,0-.872-1.214,3.135,3.135,0,0,1-2.044-.957,2.81,2.81,0,0,1-.763-2.034,3.189,3.189,0,0,1,.874-2.311,3.082,3.082,0,0,1,4.487.149,5.318,5.318,0,0,1,.944,3.454,11.78,11.78,0,0,1-3.411,8.495,1.17,1.17,0,0,1-.864.437,1.1,1.1,0,0,1-.787-.3.758.758,0,0,1-.289-.6A.866.866,0,0,1,60.06,90.736Z" fill="#3a2c60"/><path d="M81.4,72.657a7.611,7.611,0,0,0-1.533,4.826V88.256a1.755,1.755,0,0,1-.3,1.174,1.584,1.584,0,0,1-1.06.3h-1.8a3.9,3.9,0,0,0-2.615.913,3.834,3.834,0,0,0,0,5.447A3.9,3.9,0,0,0,76.711,97H80.92a7.72,7.72,0,0,0,5.735-2.094,7.807,7.807,0,0,0,2.055-5.7V78.324a4.328,4.328,0,0,1,.574-2.64,3.046,3.046,0,0,1,2.058-.793,3.687,3.687,0,0,0,2.726-1.149,3.787,3.787,0,0,0,.927-2.6,3.618,3.618,0,0,0-.981-2.6v0a3.755,3.755,0,0,0-2.629-1.088,3.091,3.091,0,0,1-2.1-.8,4.334,4.334,0,0,1-.574-2.641V53.129a7.8,7.8,0,0,0-2.056-5.695,7.713,7.713,0,0,0-5.734-2.095H76.711a3.9,3.9,0,0,0-2.614.914,3.833,3.833,0,0,0,0,5.447,3.893,3.893,0,0,0,2.614.914h1.8a1.585,1.585,0,0,1,1.061.3,1.753,1.753,0,0,1,.3,1.172V64.857A7.723,7.723,0,0,0,81.39,69.7,7.342,7.342,0,0,0,82.9,71.194,7.31,7.31,0,0,0,81.4,72.657Zm4.114-2.436a4.342,4.342,0,0,1-2.536-1.739,5.7,5.7,0,0,1-1.111-3.625V54.083a3.52,3.52,0,0,0-.882-2.587,3.362,3.362,0,0,0-2.474-.882h-1.8a1.935,1.935,0,0,1-1.314-.432,1.425,1.425,0,0,1-.436-1.205,1.41,1.41,0,0,1,.436-1.2,1.935,1.935,0,0,1,1.314-.433H80.92a5.736,5.736,0,0,1,4.309,1.5,5.819,5.819,0,0,1,1.481,4.293V64.015a6.2,6.2,0,0,0,1,3.869,4.768,4.768,0,0,0,3.552,1.564,1.851,1.851,0,0,1,1.315.48A1.67,1.67,0,0,1,93,71.142,1.582,1.582,0,0,1,91.217,72.9a4.728,4.728,0,0,0-3.512,1.56,6.2,6.2,0,0,0-1,3.869V89.211A5.815,5.815,0,0,1,85.229,93.5,5.736,5.736,0,0,1,80.92,95H76.711a1.935,1.935,0,0,1-1.314-.433,1.882,1.882,0,0,1,0-2.409,1.933,1.933,0,0,1,1.314-.432h1.8a3.353,3.353,0,0,0,2.473-.882,3.517,3.517,0,0,0,.883-2.588V77.483A5.6,5.6,0,0,1,82.97,73.89a4.382,4.382,0,0,1,2.54-1.715,1,1,0,0,0,0-1.954Z" fill="#3a2c60"/><path d="M119.305,83.25a1,1,0,0,0-1,1V96.5a1,1,0,0,0,2,0V84.25A1,1,0,0,0,119.305,83.25Z" fill="#3a2c60"/><path d="M115.305,19.219H57.328A5.39,5.39,0,0,1,52.9,16.9l-2.579-3.726a7.392,7.392,0,0,0-6.076-3.183H8.63a5.006,5.006,0,0,0-5,5v93.7a5.006,5.006,0,0,0,5,5H115.305a5.006,5.006,0,0,0,5-5v-7.52a1,1,0,0,0-2,0v7.52a3,3,0,0,1-3,3H8.63a3,3,0,0,1-3-3V34H118.305V79.25a1,1,0,0,0,2,0V24.219A5.006,5.006,0,0,0,115.305,19.219ZM5.63,14.988a3,3,0,0,1,3-3H44.241a5.389,5.389,0,0,1,4.431,2.322l2.579,3.725a7.394,7.394,0,0,0,6.077,3.184h57.977a3,3,0,0,1,3,3V32H5.63Z" fill="#3a2c60"/><circle cx="40.249" cy="22.416" r="3.257" fill="#fff"/><circle cx="28.417" cy="22.416" r="3.257" fill="#d4fbff"/><circle cx="16.586" cy="22.416" r="3.257" fill="#fa759e"/></svg>