<svg xmlns="http://www.w3.org/2000/svg" viewBox="0 0 128 128"><title>icon</title><path d="M119.37,23.414H61.328a5.326,5.326,0,0,1-4.377-2.292L54.37,17.4a7.459,7.459,0,0,0-6.133-3.212H12.565a5,5,0,0,0-5,5v93.829a5,5,0,0,0,5,5H119.37a5,5,0,0,0,5-5v-84.6A5,5,0,0,0,119.37,23.414Z" fill="#e6e7e8"/><path d="M4.63,33H119.3a0,0,0,0,1,0,0v75.687a4,4,0,0,1-4,4H8.63a4,4,0,0,1-4-4V33A0,0,0,0,1,4.63,33Z" fill="#d4fbff"/><rect x="50.416" y="7.636" width="23.103" height="94.382" rx="2" ry="2" transform="translate(116.795 -7.14) rotate(90)" fill="#ffd7e5"/><rect x="52.365" y="67.08" width="19.205" height="26.162" rx="2" ry="2" transform="translate(142.129 18.194) rotate(90)" fill="#fa759e"/><rect x="18.255" y="67.08" width="19.205" height="26.162" rx="2" ry="2" transform="translate(108.019 52.304) rotate(90)" fill="#fa759e"/><rect x="86.475" y="67.08" width="19.205" height="26.162" rx="2" ry="2" transform="translate(176.239 -15.916) rotate(90)" fill="#fa759e"/><path d="M115.305,109.686H8.63a4,4,0,0,1-4-4v3a4,4,0,0,0,4,4H115.305a4,4,0,0,0,4-4v-3A4,4,0,0,1,115.305,109.686Z" fill="#fff"/><path d="M52.073,17.466,49.5,13.741a6.393,6.393,0,0,0-5.255-2.753H8.63a4,4,0,0,0-4,4V33H119.305V24.219a4,4,0,0,0-4-4H57.328A6.393,6.393,0,0,1,52.073,17.466Z" fill="#6dc9f7"/><path d="M50.185,96.151H73.75a1,1,0,0,0,0-2H50.185a1,1,0,0,0,0,2Z" fill="#3a2c60"/><path d="M50.185,102.647H73.75a1,1,0,0,0,0-2H50.185a1,1,0,1,0,0,2Z" fill="#3a2c60"/><path d="M16.076,96.151H39.64a1,1,0,0,0,0-2H16.076a1,1,0,0,0,0,2Z" fill="#3a2c60"/><path d="M16.076,102.647H39.64a1,1,0,0,0,0-2H16.076a1,1,0,0,0,0,2Z" fill="#3a2c60"/><path d="M84.3,96.151h23.563a1,1,0,0,0,0-2H84.3a1,1,0,0,0,0,2Z" fill="#3a2c60"/><path d="M84.3,102.647h23.563a1,1,0,0,0,0-2H84.3a1,1,0,0,0,0,2Z" fill="#3a2c60"/><path d="M4.63,65.5a1,1,0,0,0,1-1v-10a1,1,0,0,0-2,0v10A1,1,0,0,0,4.63,65.5Z" fill="#3a2c60"/><path d="M115.305,19.219H57.328A5.389,5.389,0,0,1,52.9,16.9l-2.579-3.724a7.392,7.392,0,0,0-6.076-3.184H8.63a5.006,5.006,0,0,0-5,5V50.25a1,1,0,0,0,2,0V34H118.305v74.686a3,3,0,0,1-3,3H8.63a3,3,0,0,1-3-3V68.5a1,1,0,0,0-2,0v40.186a5.006,5.006,0,0,0,5,5H115.305a5.006,5.006,0,0,0,5-5V24.219A5.006,5.006,0,0,0,115.305,19.219ZM5.63,14.988a3,3,0,0,1,3-3H44.241a5.388,5.388,0,0,1,4.431,2.322l2.579,3.725a7.393,7.393,0,0,0,6.077,3.184h57.977a3,3,0,0,1,3,3V32H5.63Z" fill="#3a2c60"/><circle cx="40.249" cy="22.416" r="3.257" fill="#fff"/><circle cx="28.417" cy="22.416" r="3.257" fill="#d4fbff"/><circle cx="16.586" cy="22.416" r="3.257" fill="#fa759e"/></svg>