<svg xmlns="http://www.w3.org/2000/svg" viewBox="0 0 128 128"><title>icon</title><rect x="7.393" y="7.292" width="57.415" height="57.416" rx="9" ry="9" fill="#e6e7e8"/><rect x="67.192" y="7.292" width="57.415" height="57.416" rx="9" ry="9" fill="#e6e7e8"/><rect x="67.192" y="67.292" width="57.415" height="57.416" rx="9" ry="9" fill="#e6e7e8"/><rect x="7.393" y="67.292" width="57.415" height="57.416" rx="9" ry="9" fill="#e6e7e8"/><rect x="4.392" y="4.292" width="55.415" height="55.415" rx="8" ry="8" fill="#6dc9f7"/><path d="M41.775,26.109c-.025,0-.049,0-.075,0a10.507,10.507,0,1,0-19.2,0c-.025,0-.05,0-.075,0a10.508,10.508,0,1,0,8.441,16.745c-2.525,4.714-5.634,8.4-7.844,9.8H41.178c-2.21-1.405-5.318-5.086-7.844-9.8a10.5,10.5,0,1,0,8.441-16.745Z" fill="#fa759e"/><rect x="64.192" y="4.292" width="55.416" height="55.416" rx="8" ry="8" fill="#0089ef"/><path d="M109.456,28.678,107.48,26.7,91.9,11.122,76.32,26.7l-1.976,1.976a11.016,11.016,0,0,0,15.579,15.58l.2-.2c-2.418,4.242-5.251,7.516-7.3,8.823h18.156c-2.055-1.307-4.887-4.581-7.3-8.823l.2.2a11.017,11.017,0,0,0,15.58-15.58Z" fill="#ffd7e5"/><rect x="64.192" y="64.292" width="55.416" height="55.416" rx="8" ry="8" fill="#ffd7e5"/><path d="M111.608,64.292h-3a8,8,0,0,1,8,8v39.416a8,8,0,0,1-8,8h3a8,8,0,0,0,8-8V72.292A8,8,0,0,0,111.608,64.292Z" fill="#fff"/><polygon points="91.9 112.878 77.019 92 91.9 71.122 106.781 92 91.9 112.878" fill="#6dc9f7"/><rect x="4.392" y="64.292" width="55.415" height="55.415" rx="8" ry="8" fill="#fa759e"/><path d="M33.369,76.338,32.1,77.607l-1.27-1.269A12.017,12.017,0,0,0,13.837,93.332l17.557,17.557a1,1,0,0,0,1.414,0L50.363,93.332A12.017,12.017,0,0,0,33.369,76.338Z" fill="#0089ef"/><path d="M51.808,3.292H37.25a1,1,0,0,0,0,2H51.808a7.009,7.009,0,0,1,7,7V51.708a7.009,7.009,0,0,1-7,7H12.393a7.008,7.008,0,0,1-7-7V12.292a7.008,7.008,0,0,1,7-7h7.982a1,1,0,0,0,0-2H12.393a9.01,9.01,0,0,0-9,9V51.708a9.01,9.01,0,0,0,9,9H51.808a9.01,9.01,0,0,0,9-9V12.292A9.01,9.01,0,0,0,51.808,3.292Z" fill="#3a2c60"/><path d="M24.375,5.292h8.75a1,1,0,0,0,0-2h-8.75a1,1,0,0,0,0,2Z" fill="#3a2c60"/><path d="M32.1,10.346A11.52,11.52,0,0,0,20.593,21.854a11.394,11.394,0,0,0,.5,3.332,11.509,11.509,0,1,0,5.857,22.02,19.34,19.34,0,0,1-4.459,4.6,1,1,0,0,0,.536,1.843H41.178a1,1,0,0,0,.537-1.843,19.36,19.36,0,0,1-4.46-4.6,11.511,11.511,0,1,0,5.857-22.02,11.394,11.394,0,0,0,.495-3.332A11.52,11.52,0,0,0,32.1,10.346Zm19.182,26.27a9.519,9.519,0,0,1-9.508,9.508,9.421,9.421,0,0,1-7.637-3.864,1,1,0,0,0-1.686,1.067,36.7,36.7,0,0,0,5.965,8.327H25.783a36.648,36.648,0,0,0,5.965-8.327,1,1,0,0,0-1.686-1.067,9.421,9.421,0,0,1-7.637,3.864,9.509,9.509,0,0,1-.041-19.017,1.073,1.073,0,0,0,.955-.45,1,1,0,0,0,.075-.951,9.418,9.418,0,0,1-.821-3.852,9.507,9.507,0,1,1,19.014,0,9.418,9.418,0,0,1-.821,3.852,1,1,0,0,0,.914,1.406l.1,0A9.519,9.519,0,0,1,51.283,36.616Z" fill="#3a2c60"/><path d="M111.607,3.292H72.192a9.01,9.01,0,0,0-9,9V51.708a9.01,9.01,0,0,0,9,9h39.415a9.01,9.01,0,0,0,9-9V12.292A9.01,9.01,0,0,0,111.607,3.292Zm7,48.416a7.008,7.008,0,0,1-7,7H72.192a7.009,7.009,0,0,1-7-7V12.292a7.009,7.009,0,0,1,7-7h39.415a7.008,7.008,0,0,1,7,7Z" fill="#3a2c60"/><path d="M92.606,10.415a1.029,1.029,0,0,0-1.414,0L73.637,27.971A12.024,12.024,0,0,0,86.594,47.634a18.7,18.7,0,0,1-4.308,4.4,1,1,0,0,0,.536,1.844h18.156a1,1,0,0,0,.536-1.844A18.708,18.708,0,0,1,97.2,47.623a12.016,12.016,0,0,0,12.965-19.652Zm16.143,33.136a10.027,10.027,0,0,1-14.166,0l-.2-.2a1,1,0,0,0-1.576,1.2,35.461,35.461,0,0,0,5.411,7.328H85.585A35.5,35.5,0,0,0,91,44.55a1,1,0,0,0-1.576-1.2l-.2.2A10.017,10.017,0,1,1,75.051,29.385L91.9,12.536l16.85,16.849a10.017,10.017,0,0,1,0,14.166Z" fill="#3a2c60"/><path d="M111.607,63.292H72.192a9.01,9.01,0,0,0-9,9v39.416a9.01,9.01,0,0,0,9,9h39.415a9.01,9.01,0,0,0,9-9V72.292A9.01,9.01,0,0,0,111.607,63.292Zm7,48.416a7.008,7.008,0,0,1-7,7H72.192a7.009,7.009,0,0,1-7-7V72.292a7.009,7.009,0,0,1,7-7h39.415a7.008,7.008,0,0,1,7,7Z" fill="#3a2c60"/><path d="M92.714,70.542a1.037,1.037,0,0,0-1.629,0L76.2,91.42a1,1,0,0,0,0,1.16l14.881,20.878a1,1,0,0,0,1.629,0L107.6,92.58a1,1,0,0,0,0-1.16ZM91.9,111.155,78.246,92,91.9,72.845,105.553,92Z" fill="#3a2c60"/><path d="M51.808,63.292H12.393a9.01,9.01,0,0,0-9,9v39.416a9.01,9.01,0,0,0,9,9H51.808a9.01,9.01,0,0,0,9-9V72.292A9.01,9.01,0,0,0,51.808,63.292Zm7,48.416a7.009,7.009,0,0,1-7,7H12.393a7.008,7.008,0,0,1-7-7V72.292a7.008,7.008,0,0,1,7-7H51.808a7.009,7.009,0,0,1,7,7Z" fill="#3a2c60"/><path d="M33.369,76.338,32.1,77.607l-1.27-1.269A12.017,12.017,0,0,0,13.837,93.332l17.557,17.557a1,1,0,0,0,1.414,0L50.363,93.332A12.017,12.017,0,0,0,33.369,76.338Zm15.58,15.58L32.1,108.768l-16.85-16.85A10.017,10.017,0,0,1,29.417,77.752l1.977,1.977a1.029,1.029,0,0,0,1.414,0l1.975-1.977A10.017,10.017,0,0,1,48.949,91.918Z" fill="#3a2c60"/></svg>