<svg xmlns="http://www.w3.org/2000/svg" viewBox="0 0 128 128"><title>icon</title><path d="M106.985,40.073,79.539,12.626a1,1,0,0,0-.707-.293H29.667a5,5,0,0,0-5,5v97.334a5,5,0,0,0,5,5h72.666a5,5,0,0,0,5-5V40.831A1,1,0,0,0,106.985,40.073Z" fill="#e6e7e8"/><path d="M102.331,36.833l-27.5-27.5H25.667a4,4,0,0,0-4,4v97.334a4,4,0,0,0,4,4H98.333a4,4,0,0,0,4-4V36.831Z" fill="#6dc9f7"/><path d="M74.832,9.335H25.667a4,4,0,0,0-4,4v3a4,4,0,0,1,4-4H74.832Z" fill="#fff"/><path d="M94,76.357V69.643a1.87,1.87,0,0,0-1.87-1.87H87.611A25.983,25.983,0,0,0,83.8,58.59l3.2-3.2a1.869,1.869,0,0,0,0-2.645L82.254,48a1.869,1.869,0,0,0-2.645,0l-3.2,3.2a25.985,25.985,0,0,0-9.183-3.81V42.87A1.87,1.87,0,0,0,65.357,41H58.643a1.87,1.87,0,0,0-1.87,1.87v4.518A25.993,25.993,0,0,0,47.59,51.2l-3.2-3.2a1.868,1.868,0,0,0-2.644,0L37,52.746a1.869,1.869,0,0,0,0,2.645l3.2,3.2a25.983,25.983,0,0,0-3.809,9.183H31.87A1.87,1.87,0,0,0,30,69.643v6.714a1.87,1.87,0,0,0,1.87,1.87h4.519A25.991,25.991,0,0,0,40.2,87.41l-3.2,3.2a1.868,1.868,0,0,0,0,2.644L41.747,98a1.87,1.87,0,0,0,2.644,0l3.2-3.2a26.011,26.011,0,0,0,9.183,3.81v4.518a1.87,1.87,0,0,0,1.87,1.87h6.714a1.87,1.87,0,0,0,1.87-1.87V98.612A26,26,0,0,0,76.41,94.8l3.2,3.2a1.871,1.871,0,0,0,2.645,0L87,93.253a1.868,1.868,0,0,0,0-2.644l-3.2-3.2a26.011,26.011,0,0,0,3.81-9.183H92.13A1.87,1.87,0,0,0,94,76.357ZM62,88.3A15.3,15.3,0,1,1,77.3,73,15.3,15.3,0,0,1,62,88.3Z" fill="#fa759e"/><path d="M74.834,9.333l0,0v23.5a4,4,0,0,0,4,4h23.5Z" fill="#0089ef"/><path d="M62,89.3A16.3,16.3,0,1,0,45.7,73,16.318,16.318,0,0,0,62,89.3Zm0-30.6A14.3,14.3,0,1,1,47.7,73,14.315,14.315,0,0,1,62,58.7Z" fill="#3a2c60"/><path d="M35.451,91.931a2.848,2.848,0,0,0,.841,2.029l4.747,4.749a2.941,2.941,0,0,0,4.059,0l2.631-2.63a26.836,26.836,0,0,0,8.044,3.338v3.714a2.874,2.874,0,0,0,2.87,2.87h6.714a2.874,2.874,0,0,0,2.871-2.87V99.416a26.857,26.857,0,0,0,8.044-3.338l2.63,2.631a2.874,2.874,0,0,0,4.059,0l4.747-4.747a2.869,2.869,0,0,0,0-4.059l-2.63-2.631a26.806,26.806,0,0,0,3.338-8.044H92.13A2.873,2.873,0,0,0,95,76.357V69.643a2.873,2.873,0,0,0-2.87-2.87H88.416a26.822,26.822,0,0,0-3.338-8.045l2.63-2.63a2.868,2.868,0,0,0,0-4.058l-4.747-4.749a2.874,2.874,0,0,0-4.059,0l-2.63,2.63a26.836,26.836,0,0,0-8.044-3.338V42.87A2.874,2.874,0,0,0,65.357,40H58.643a2.874,2.874,0,0,0-2.87,2.87v3.714a26.825,26.825,0,0,0-8.044,3.338L45.1,47.292a2.939,2.939,0,0,0-4.059,0l-4.747,4.747a2.869,2.869,0,0,0,0,4.059l2.63,2.63a26.822,26.822,0,0,0-3.338,8.045H31.87A2.873,2.873,0,0,0,29,69.643v6.714a2.873,2.873,0,0,0,2.87,2.87h3.714a26.806,26.806,0,0,0,3.338,8.044L36.292,89.9A2.852,2.852,0,0,0,35.451,91.931Zm2.255-.615,3.2-3.2a1,1,0,0,0,.127-1.26,24.881,24.881,0,0,1-3.663-8.829,1,1,0,0,0-.98-.8H31.87a.871.871,0,0,1-.87-.87V69.643a.871.871,0,0,1,.87-.87h4.519a1,1,0,0,0,.98-.8,24.873,24.873,0,0,1,3.663-8.829,1,1,0,0,0-.127-1.26l-3.2-3.2a.868.868,0,0,1,0-1.229l4.747-4.748a.891.891,0,0,1,1.231,0l3.2,3.2a1,1,0,0,0,1.26.127,24.846,24.846,0,0,1,8.829-3.663,1,1,0,0,0,.8-.98V42.87a.871.871,0,0,1,.87-.87h6.714a.871.871,0,0,1,.871.87v4.519a1,1,0,0,0,.8.98,24.874,24.874,0,0,1,8.83,3.663,1,1,0,0,0,1.259-.127l3.2-3.2a.871.871,0,0,1,1.231,0l4.747,4.748a.869.869,0,0,1,0,1.23l-3.2,3.2a1,1,0,0,0-.127,1.26,24.873,24.873,0,0,1,3.663,8.829,1,1,0,0,0,.98.8H92.13a.871.871,0,0,1,.87.87v6.714a.871.871,0,0,1-.87.87H87.611a1,1,0,0,0-.98.8,24.881,24.881,0,0,1-3.663,8.829,1,1,0,0,0,.127,1.26l3.2,3.2a.869.869,0,0,1,0,1.23l-4.747,4.748a.871.871,0,0,1-1.231,0l-3.2-3.2a1,1,0,0,0-1.259-.127,24.889,24.889,0,0,1-8.83,3.663,1,1,0,0,0-.8.98v4.519a.871.871,0,0,1-.871.87H58.643a.871.871,0,0,1-.87-.87V98.611a1,1,0,0,0-.8-.98,24.874,24.874,0,0,1-8.83-3.663,1,1,0,0,0-1.259.127l-3.2,3.2a.891.891,0,0,1-1.231,0l-4.747-4.748a.869.869,0,0,1,0-1.23Z" fill="#3a2c60"/><path d="M103,36.085,75.539,8.626a1,1,0,0,0-.707-.293H25.667a5.006,5.006,0,0,0-5,5v97.334a5.006,5.006,0,0,0,5,5h12.5a1,1,0,0,0,0-2h-12.5a3,3,0,0,1-3-3V13.333a3,3,0,0,1,3-3H73.832v22.5a5.006,5.006,0,0,0,5,5h22.5v72.834a3,3,0,0,1-3,3H56a1,1,0,0,0,0,2H98.333a5.006,5.006,0,0,0,5-5V36.831A1,1,0,0,0,103,36.085ZM75.832,32.833V11.748L99.917,35.833H78.832A3,3,0,0,1,75.832,32.833Z" fill="#3a2c60"/><path d="M51.833,113.667h-9.5a1,1,0,0,0,0,2h9.5a1,1,0,0,0,0-2Z" fill="#3a2c60"/></svg>