<svg xmlns="http://www.w3.org/2000/svg" viewBox="0 0 128 128"><title>icon</title><path d="M105.186,108.335V99.076A30.1,30.1,0,0,0,76.675,69.053,23.69,23.69,0,0,0,89,53.294a3.5,3.5,0,0,0,.934.129c2.45,0,4.369-2.529,4.369-5.757a6.079,6.079,0,0,0-2.39-5.147v-6.7h.149a3.8,3.8,0,1,0,0-7.6h-.783A26.093,26.093,0,0,0,73.867,9.442V9.191a3.023,3.023,0,0,0-2.458-2.957,28.9,28.9,0,0,0-10.819,0,3.022,3.022,0,0,0-2.457,2.957v.251A26.093,26.093,0,0,0,40.717,28.221h-.783a3.8,3.8,0,1,0,0,7.6h.149v6.7a6.079,6.079,0,0,0-2.39,5.147c0,3.228,1.919,5.757,4.368,5.757A3.506,3.506,0,0,0,43,53.294,23.69,23.69,0,0,0,55.325,69.053,30.1,30.1,0,0,0,26.813,99.076v9.259a9,9,0,0,0,1,17.941h76.373a9,9,0,0,0,1-17.941Z" fill="#e6e7e8"/><path d="M100.186,105.277v-10.2A29.061,29.061,0,0,0,71.124,66.014H52.875A29.061,29.061,0,0,0,23.814,95.076v10.2a8,8,0,0,1,0,16h76.371a8,8,0,0,1,0-16Z" fill="#ffd7e5"/><path d="M62,66.615a22.541,22.541,0,0,1-8.563-1.683v.138L62,70.526l8.571-5.456v-.141A22.542,22.542,0,0,1,62,66.615Z" fill="#fff"/><polygon points="62 70.526 58.608 75.447 65.392 75.447 62 70.526 62 70.526 62 70.526" fill="#fa759e"/><path d="M85.938,38.909a2.55,2.55,0,0,0-1.33.388v4.71a22.673,22.673,0,0,1-.321,3.782,2.641,2.641,0,0,0,1.651.634c1.861,0,3.369-2.13,3.369-4.757S87.8,38.909,85.938,38.909Z" fill="#fff"/><path d="M39.392,44.007V39.3a2.55,2.55,0,0,0-1.33-.388c-1.861,0-3.369,2.13-3.369,4.757s1.508,4.757,3.369,4.757a2.641,2.641,0,0,0,1.651-.634A22.673,22.673,0,0,1,39.392,44.007Z" fill="#fff"/><path d="M39.392,30.823V44.007a22.608,22.608,0,0,0,45.216,0V30.823Z" fill="#fff"/><path d="M86.5,25.221a25,25,0,0,0-49,0Z" fill="#6dc9f7"/><path d="M62,8.189A24.991,24.991,0,0,1,85.671,25.221H86.5a25,25,0,0,0-49,0h.831A24.991,24.991,0,0,1,62,8.189Z" fill="#fff"/><path d="M68.867,25.221V5.191a2.017,2.017,0,0,0-1.646-1.975,27.782,27.782,0,0,0-10.442,0,2.017,2.017,0,0,0-1.646,1.975v20.03Z" fill="#6dc9f7"/><rect x="33.133" y="25.221" width="57.733" height="5.602" rx="2.801" ry="2.801" fill="#6dc9f7"/><path d="M92.855,79.447a4,4,0,0,0-4-4H35.145a4,4,0,0,0-4,4v30.632a7.975,7.975,0,0,1,.513,4.767H92.342a7.975,7.975,0,0,1,.513-4.767Z" fill="#6dc9f7"/><path d="M35.5,114.846V84.732a4,4,0,0,1,4-4h45a4,4,0,0,1,4,4v30.114Z" fill="#d4fbff"/><path d="M92.342,114.846H31.658a8.012,8.012,0,0,1-4.687,5.781,3.968,3.968,0,0,0,2.174.65h65.71a3.968,3.968,0,0,0,2.174-.65A8.012,8.012,0,0,1,92.342,114.846Z" fill="#0089ef"/><circle cx="23.814" cy="113.277" r="8" fill="#fff"/><circle cx="100.186" cy="113.277" r="8" fill="#fff"/><path d="M52.026,40.581a2.261,2.261,0,1,0,2.261,2.261A2.261,2.261,0,0,0,52.026,40.581Z" fill="#3a2c60"/><path d="M71.974,40.581a2.261,2.261,0,1,0,2.261,2.261A2.262,2.262,0,0,0,71.974,40.581Z" fill="#3a2c60"/><path d="M62,53.905a3.575,3.575,0,0,0,3.571-3.571V48.827a1,1,0,0,0-2,0v1.507a1.571,1.571,0,0,1-3.142,0V48.827a1,1,0,0,0-2,0v1.507A3.575,3.575,0,0,0,62,53.905Z" fill="#3a2c60"/><path d="M70.254,38.464l4.427.771a1.02,1.02,0,0,0,.173.015,1,1,0,0,0,.171-1.986L70.6,36.493a1,1,0,1,0-.344,1.971Z" fill="#3a2c60"/><path d="M53.4,36.493l-4.427.771a1,1,0,0,0,.171,1.986,1.02,1.02,0,0,0,.173-.015l4.427-.771a1,1,0,1,0-.344-1.971Z" fill="#3a2c60"/><path d="M67.806,57.1A1,1,0,1,0,66.212,55.9,5.548,5.548,0,0,1,62,57.814a5.365,5.365,0,0,1-4.2-1.9,1,1,0,0,0-1.618,1.175A7.371,7.371,0,0,0,62,59.814,7.572,7.572,0,0,0,67.806,57.1Z" fill="#3a2c60"/><path d="M49.572,101.485a5,5,0,1,0,5,5A5,5,0,0,0,49.572,101.485Zm0,7.993a3,3,0,1,1,3-3A3,3,0,0,1,49.572,109.478Z" fill="#3a2c60"/><path d="M74.428,84.487a5,5,0,1,0,5,5A5,5,0,0,0,74.428,84.487Zm0,7.993a3,3,0,1,1,3-3A3,3,0,0,1,74.428,92.48Z" fill="#3a2c60"/><path d="M44.868,92.591a1,1,0,0,0,1.414,0L48.773,90.1l2.492,2.491a1,1,0,1,0,1.414-1.414l-2.492-2.491,2.492-2.492a1,1,0,1,0-1.414-1.414l-2.492,2.491L46.282,84.78a1,1,0,1,0-1.414,1.414l2.491,2.492-2.491,2.491A1,1,0,0,0,44.868,92.591Z" fill="#3a2c60"/><path d="M77.536,103.374a1,1,0,0,0-1.414,0l-2.492,2.491-2.491-2.491a1,1,0,1,0-1.414,1.414l2.491,2.492-2.491,2.491a1,1,0,1,0,1.414,1.414l2.491-2.491,2.492,2.491a1,1,0,1,0,1.414-1.414l-2.492-2.491,2.492-2.492A1,1,0,0,0,77.536,103.374Z" fill="#3a2c60"/><path d="M72.53,99.779l-.136-3.471a1,1,0,0,0-2,.079l.06,1.525L56.847,88.5a1,1,0,0,0-1.137,1.645L69.192,99.47l-1.3.386a1,1,0,0,0,.284,1.959,1.016,1.016,0,0,0,.286-.042l3.357-1A1,1,0,0,0,72.53,99.779Z" fill="#3a2c60"/><path d="M88.5,99.815a1,1,0,0,0-1,1v5.875a1,1,0,0,0,2,0v-5.875A1,1,0,0,0,88.5,99.815Z" fill="#3a2c60"/><path d="M101.187,104.336v-9.26A30.1,30.1,0,0,0,72.674,65.053,23.691,23.691,0,0,0,85.005,49.291a3.447,3.447,0,0,0,.933.132c2.45,0,4.369-2.529,4.369-5.757a6.081,6.081,0,0,0-2.39-5.147v-6.7h.149a3.8,3.8,0,1,0,0-7.6H87.29A26.094,26.094,0,0,0,69.867,5.44V5.191a3.023,3.023,0,0,0-2.458-2.957,28.9,28.9,0,0,0-10.819,0,3.024,3.024,0,0,0-2.457,2.957V5.44A26.094,26.094,0,0,0,36.71,24.221h-.776a3.8,3.8,0,1,0,0,7.6h.149v6.7a6.079,6.079,0,0,0-2.391,5.147c0,3.228,1.919,5.757,4.37,5.757a3.409,3.409,0,0,0,.933-.133A23.691,23.691,0,0,0,51.326,65.053,30.1,30.1,0,0,0,22.814,95.076v9.26a9,9,0,0,0,1,17.941h76.373a9,9,0,0,0,1-17.941Zm-2,0a8.974,8.974,0,0,0-5.332,2.553V79.447a5.024,5.024,0,0,0-.094-.931,27.912,27.912,0,0,1,5.426,16.56ZM90.411,74.72a4.933,4.933,0,0,0-1.556-.273H71.378l4.119-7.09A27.989,27.989,0,0,1,90.411,74.72ZM71.125,67.014c.685,0,1.391.032,2.1.087l.1.008-4.263,7.338H65.918l-2.505-3.634,5.967-3.8ZM62,69.341l-3.022-1.926a22.9,22.9,0,0,0,6.048,0Zm0,2.947,1.488,2.159H60.511Zm-1.412-1.475-2.505,3.634H54.935l-4.264-7.338.1-.008c.714-.055,1.419-.087,2.1-.087h1.751ZM48.5,67.357l4.12,7.09H35.145a4.917,4.917,0,0,0-1.555.273A27.983,27.983,0,0,1,48.5,67.357Zm-13.357,9.09h53.71a3,3,0,0,1,3,3v30.439a8.94,8.94,0,0,0-.668,3.391c0,.192.016.38.028.569H89.5V109.94a1,1,0,0,0-2,0v3.906h-51V84.732a3,3,0,0,1,3-3h45a3,3,0,0,1,3,3V97.19a1,1,0,0,0,2,0V84.732a5.006,5.006,0,0,0-5-5h-45a5.006,5.006,0,0,0-5,5v29.114H32.785c.012-.189.029-.377.029-.569a8.951,8.951,0,0,0-.669-3.393V79.447A3,3,0,0,1,35.145,76.447Zm-2.71,39.4h59.13a9.032,9.032,0,0,0,2.977,4.431H29.458A9.032,9.032,0,0,0,32.435,115.846Zm53.5-68.423a1.457,1.457,0,0,1-.563-.131,23.741,23.741,0,0,0,.233-3.285V39.951a1.47,1.47,0,0,1,.33-.042c1.284,0,2.369,1.721,2.369,3.757S87.222,47.423,85.938,47.423Zm-.7-23.2H69.867V7.56A24.085,24.085,0,0,1,85.235,24.221Zm-29.1-19.03a1.02,1.02,0,0,1,.835-.993,26.905,26.905,0,0,1,10.064,0,1.02,1.02,0,0,1,.835.993v19.03H56.133Zm-2,2.369V24.221H38.765A24.085,24.085,0,0,1,54.133,7.56Zm-20,20.462a1.8,1.8,0,0,1,1.8-1.8H88.066a1.8,1.8,0,1,1,0,3.6H35.934A1.8,1.8,0,0,1,34.133,28.022Zm3.929,19.4c-1.285,0-2.37-1.721-2.37-3.757s1.085-3.757,2.37-3.757a1.47,1.47,0,0,1,.33.042v4.056a23.741,23.741,0,0,0,.233,3.285A1.457,1.457,0,0,1,38.062,47.423Zm2.33-3.416V31.823H83.608V44.007a21.608,21.608,0,0,1-43.216,0ZM30.239,78.517a4.921,4.921,0,0,0-.094.93v27.442a8.976,8.976,0,0,0-5.331-2.553v-9.26A27.908,27.908,0,0,1,30.239,78.517Zm-13.425,34.76a7,7,0,1,1,7,7A7.008,7.008,0,0,1,16.814,113.277Zm83.373,7a7,7,0,1,1,7-7A7.008,7.008,0,0,1,100.187,120.277Z" fill="#3a2c60"/></svg>